<?xml version="1.0" encoding="UTF-8"?>
<!DOCTYPE svg PUBLIC "-//W3C//DTD SVG 1.1//EN" "http://www.w3.org/Graphics/SVG/1.1/DTD/svg11.dtd">
<svg xmlns="http://www.w3.org/2000/svg" version="1.1" width="2200px" height="1800px" style="shape-rendering:geometricPrecision; text-rendering:geometricPrecision; image-rendering:optimizeQuality; fill-rule:evenodd; clip-rule:evenodd" xmlns:xlink="http://www.w3.org/1999/xlink">
<g><path style="opacity:1" fill="#c6c8c9" d="M 99.5,-0.5 C 132.833,-0.5 166.167,-0.5 199.5,-0.5C 199.5,32.8333 199.5,66.1667 199.5,99.5C 332.833,99.5 466.167,99.5 599.5,99.5C 599.5,66.1667 599.5,32.8333 599.5,-0.5C 632.833,-0.5 666.167,-0.5 699.5,-0.5C 699.5,32.8333 699.5,66.1667 699.5,99.5C 832.833,99.5 966.167,99.5 1099.5,99.5C 1099.5,66.1667 1099.5,32.8333 1099.5,-0.5C 1132.83,-0.5 1166.17,-0.5 1199.5,-0.5C 1199.5,66.1667 1199.5,132.833 1199.5,199.5C 1099.5,199.5 999.5,199.5 899.5,199.5C 899.5,266.167 899.5,332.833 899.5,399.5C 1032.83,399.5 1166.17,399.5 1299.5,399.5C 1332.83,399.5 1366.17,399.5 1399.5,399.5C 1399.5,432.833 1399.5,466.167 1399.5,499.5C 1332.83,499.5 1266.17,499.5 1199.5,499.5C 1199.5,532.833 1199.5,566.167 1199.5,599.5C 1166.17,599.5 1132.83,599.5 1099.5,599.5C 1099.5,566.167 1099.5,532.833 1099.5,499.5C 966.167,499.5 832.833,499.5 699.5,499.5C 699.5,532.833 699.5,566.167 699.5,599.5C 666.167,599.5 632.833,599.5 599.5,599.5C 599.5,566.167 599.5,532.833 599.5,499.5C 466.167,499.5 332.833,499.5 199.5,499.5C 199.5,566.167 199.5,632.833 199.5,699.5C 299.5,699.5 399.5,699.5 499.5,699.5C 499.5,732.833 499.5,766.167 499.5,799.5C 466.167,799.5 432.833,799.5 399.5,799.5C 399.5,866.167 399.5,932.833 399.5,999.5C 432.833,999.5 466.167,999.5 499.5,999.5C 499.5,1032.83 499.5,1066.17 499.5,1099.5C 399.5,1099.5 299.5,1099.5 199.5,1099.5C 199.5,1166.17 199.5,1232.83 199.5,1299.5C 166.167,1299.5 132.833,1299.5 99.5,1299.5C 99.5,1266.17 99.5,1232.83 99.5,1199.5C 99.5,1166.17 99.5,1132.83 99.5,1099.5C 66.1667,1099.5 32.8333,1099.5 -0.5,1099.5C -0.5,1066.17 -0.5,1032.83 -0.5,999.5C 99.5,999.5 199.5,999.5 299.5,999.5C 299.5,932.833 299.5,866.167 299.5,799.5C 199.5,799.5 99.5,799.5 -0.5,799.5C -0.5,766.167 -0.5,732.833 -0.5,699.5C 32.8333,699.5 66.1667,699.5 99.5,699.5C 99.5,632.833 99.5,566.167 99.5,499.5C 66.1667,499.5 32.8333,499.5 -0.5,499.5C -0.5,466.167 -0.5,432.833 -0.5,399.5C 99.5,399.5 199.5,399.5 299.5,399.5C 299.5,332.833 299.5,266.167 299.5,199.5C 199.5,199.5 99.5,199.5 -0.5,199.5C -0.5,166.167 -0.5,132.833 -0.5,99.5C 32.8333,99.5 66.1667,99.5 99.5,99.5C 99.5,66.1667 99.5,32.8333 99.5,-0.5 Z"/></g>
<g><path style="opacity:1" fill="#7d7e7e" d="M 199.5,-0.5 C 332.833,-0.5 466.167,-0.5 599.5,-0.5C 599.5,32.8333 599.5,66.1667 599.5,99.5C 466.167,99.5 332.833,99.5 199.5,99.5C 199.5,66.1667 199.5,32.8333 199.5,-0.5 Z"/></g>
<g><path style="opacity:1" fill="#7d7e7e" d="M 699.5,-0.5 C 832.833,-0.5 966.167,-0.5 1099.5,-0.5C 1099.5,32.8333 1099.5,66.1667 1099.5,99.5C 966.167,99.5 832.833,99.5 699.5,99.5C 699.5,66.1667 699.5,32.8333 699.5,-0.5 Z"/></g>
<g><path style="opacity:1" fill="#7d7e7e" d="M -0.5,199.5 C 99.5,199.5 199.5,199.5 299.5,199.5C 299.5,266.167 299.5,332.833 299.5,399.5C 199.5,399.5 99.5,399.5 -0.5,399.5C -0.5,332.833 -0.5,266.167 -0.5,199.5 Z"/></g>
<g><path style="opacity:1" fill="#7d7e7e" d="M 399.5,199.5 C 532.833,199.5 666.167,199.5 799.5,199.5C 799.5,266.167 799.5,332.833 799.5,399.5C 666.167,399.5 532.833,399.5 399.5,399.5C 399.5,332.833 399.5,266.167 399.5,199.5 Z"/></g>
<g><path style="opacity:1" fill="#7d7e7e" d="M 1199.5,199.5 C 1232.83,199.5 1266.17,199.5 1299.5,199.5C 1299.5,266.167 1299.5,332.833 1299.5,399.5C 1166.17,399.5 1032.83,399.5 899.5,399.5C 899.5,332.833 899.5,266.167 899.5,199.5C 999.5,199.5 1099.5,199.5 1199.5,199.5 Z"/></g>
<g><path style="opacity:1" fill="#7d7e7e" d="M -0.5,499.5 C 32.8333,499.5 66.1667,499.5 99.5,499.5C 99.5,566.167 99.5,632.833 99.5,699.5C 66.1667,699.5 32.8333,699.5 -0.5,699.5C -0.5,632.833 -0.5,566.167 -0.5,499.5 Z"/></g>
<g><path style="opacity:1" fill="#7d7e7e" d="M 599.5,599.5 C 599.5,632.833 599.5,666.167 599.5,699.5C 566.167,699.5 532.833,699.5 499.5,699.5C 399.5,699.5 299.5,699.5 199.5,699.5C 199.5,632.833 199.5,566.167 199.5,499.5C 332.833,499.5 466.167,499.5 599.5,499.5C 599.5,532.833 599.5,566.167 599.5,599.5 Z"/></g>
<g><path style="opacity:1" fill="#7d7e7e" d="M 1099.5,599.5 C 1066.17,599.5 1032.83,599.5 999.5,599.5C 999.5,632.833 999.5,666.167 999.5,699.5C 966.167,699.5 932.833,699.5 899.5,699.5C 899.5,666.167 899.5,632.833 899.5,599.5C 832.833,599.5 766.167,599.5 699.5,599.5C 699.5,566.167 699.5,532.833 699.5,499.5C 832.833,499.5 966.167,499.5 1099.5,499.5C 1099.5,532.833 1099.5,566.167 1099.5,599.5 Z"/></g>
<g><path style="opacity:1" fill="#7d7e7e" d="M 1399.5,499.5 C 1399.5,532.833 1399.5,566.167 1399.5,599.5C 1332.83,599.5 1266.17,599.5 1199.5,599.5C 1199.5,566.167 1199.5,532.833 1199.5,499.5C 1266.17,499.5 1332.83,499.5 1399.5,499.5 Z"/></g>
<g><path style="opacity:1" fill="#e0fff9" d="M 1399.5,499.5 C 1466.17,499.5 1532.83,499.5 1599.5,499.5C 1599.5,532.833 1599.5,566.167 1599.5,599.5C 1532.83,599.5 1466.17,599.5 1399.5,599.5C 1399.5,566.167 1399.5,532.833 1399.5,499.5 Z"/></g>
<g><path style="opacity:1" fill="#ada99e" d="M 1599.5,499.5 C 1632.83,499.5 1666.17,499.5 1699.5,499.5C 1699.5,532.833 1699.5,566.167 1699.5,599.5C 1766.17,599.5 1832.83,599.5 1899.5,599.5C 1899.5,566.167 1899.5,532.833 1899.5,499.5C 1932.83,499.5 1966.17,499.5 1999.5,499.5C 1999.5,632.833 1999.5,766.167 1999.5,899.5C 2066.17,899.5 2132.83,899.5 2199.5,899.5C 2199.5,932.833 2199.5,966.167 2199.5,999.5C 2132.83,999.5 2066.17,999.5 1999.5,999.5C 1999.5,1132.83 1999.5,1266.17 1999.5,1399.5C 2066.17,1399.5 2132.83,1399.5 2199.5,1399.5C 2199.5,1432.83 2199.5,1466.17 2199.5,1499.5C 2132.83,1499.5 2066.17,1499.5 1999.5,1499.5C 1999.5,1599.5 1999.5,1699.5 1999.5,1799.5C 1966.17,1799.5 1932.83,1799.5 1899.5,1799.5C 1899.5,1766.17 1899.5,1732.83 1899.5,1699.5C 1832.83,1699.5 1766.17,1699.5 1699.5,1699.5C 1699.5,1732.83 1699.5,1766.17 1699.5,1799.5C 1666.17,1799.5 1632.83,1799.5 1599.5,1799.5C 1599.5,1699.5 1599.5,1599.5 1599.5,1499.5C 1632.83,1499.5 1666.17,1499.5 1699.5,1499.5C 1699.5,1532.83 1699.5,1566.17 1699.5,1599.5C 1766.17,1599.5 1832.83,1599.5 1899.5,1599.5C 1899.5,1466.17 1899.5,1332.83 1899.5,1199.5C 1866.17,1199.5 1832.83,1199.5 1799.5,1199.5C 1766.17,1199.5 1732.83,1199.5 1699.5,1199.5C 1699.5,1166.17 1699.5,1132.83 1699.5,1099.5C 1766.17,1099.5 1832.83,1099.5 1899.5,1099.5C 1899.5,966.167 1899.5,832.833 1899.5,699.5C 1832.83,699.5 1766.17,699.5 1699.5,699.5C 1666.17,699.5 1632.83,699.5 1599.5,699.5C 1599.5,666.167 1599.5,632.833 1599.5,599.5C 1599.5,566.167 1599.5,532.833 1599.5,499.5 Z"/></g>
<g><path style="opacity:1" fill="#e0fff9" d="M 1699.5,499.5 C 1766.17,499.5 1832.83,499.5 1899.5,499.5C 1899.5,532.833 1899.5,566.167 1899.5,599.5C 1832.83,599.5 1766.17,599.5 1699.5,599.5C 1699.5,566.167 1699.5,532.833 1699.5,499.5 Z"/></g>
<g><path style="opacity:1" fill="#e0fff9" d="M 1999.5,499.5 C 2032.83,499.5 2066.17,499.5 2099.5,499.5C 2099.5,532.833 2099.5,566.167 2099.5,599.5C 2132.83,599.5 2166.17,599.5 2199.5,599.5C 2199.5,699.5 2199.5,799.5 2199.5,899.5C 2132.83,899.5 2066.17,899.5 1999.5,899.5C 1999.5,766.167 1999.5,632.833 1999.5,499.5 Z"/></g>
<g><path style="opacity:1" fill="#00a7f3" d="M 599.5,599.5 C 632.833,599.5 666.167,599.5 699.5,599.5C 766.167,599.5 832.833,599.5 899.5,599.5C 899.5,632.833 899.5,666.167 899.5,699.5C 799.5,699.5 699.5,699.5 599.5,699.5C 599.5,666.167 599.5,632.833 599.5,599.5 Z"/></g>
<g><path style="opacity:1" fill="#eb1c23" d="M 1099.5,599.5 C 1132.83,599.5 1166.17,599.5 1199.5,599.5C 1266.17,599.5 1332.83,599.5 1399.5,599.5C 1466.17,599.5 1532.83,599.5 1599.5,599.5C 1599.5,632.833 1599.5,666.167 1599.5,699.5C 1566.17,699.5 1532.83,699.5 1499.5,699.5C 1432.83,699.5 1366.17,699.5 1299.5,699.5C 1266.17,699.5 1232.83,699.5 1199.5,699.5C 1132.83,699.5 1066.17,699.5 999.5,699.5C 999.5,666.167 999.5,632.833 999.5,599.5C 1032.83,599.5 1066.17,599.5 1099.5,599.5 Z"/></g>
<g><path style="opacity:1" fill="#00a7f3" d="M 499.5,699.5 C 532.833,699.5 566.167,699.5 599.5,699.5C 599.5,732.833 599.5,766.167 599.5,799.5C 566.167,799.5 532.833,799.5 499.5,799.5C 499.5,766.167 499.5,732.833 499.5,699.5 Z"/></g>
<g><path style="opacity:1" fill="#c6c8c9" d="M 599.5,699.5 C 699.5,699.5 799.5,699.5 899.5,699.5C 899.5,732.833 899.5,766.167 899.5,799.5C 866.167,799.5 832.833,799.5 799.5,799.5C 732.833,799.5 666.167,799.5 599.5,799.5C 599.5,766.167 599.5,732.833 599.5,699.5 Z"/></g>
<g><path style="opacity:1" fill="#eb1c23" d="M 899.5,699.5 C 932.833,699.5 966.167,699.5 999.5,699.5C 999.5,732.833 999.5,766.167 999.5,799.5C 966.167,799.5 932.833,799.5 899.5,799.5C 899.5,766.167 899.5,732.833 899.5,699.5 Z"/></g>
<g><path style="opacity:1" fill="#8000e3" d="M 999.5,699.5 C 1066.17,699.5 1132.83,699.5 1199.5,699.5C 1199.5,732.833 1199.5,766.167 1199.5,799.5C 1232.83,799.5 1266.17,799.5 1299.5,799.5C 1299.5,866.167 1299.5,932.833 1299.5,999.5C 1266.17,999.5 1232.83,999.5 1199.5,999.5C 1199.5,1032.83 1199.5,1066.17 1199.5,1099.5C 1132.83,1099.5 1066.17,1099.5 999.5,1099.5C 999.5,1066.17 999.5,1032.83 999.5,999.5C 966.167,999.5 932.833,999.5 899.5,999.5C 899.5,932.833 899.5,866.167 899.5,799.5C 932.833,799.5 966.167,799.5 999.5,799.5C 999.5,766.167 999.5,732.833 999.5,699.5 Z"/></g>
<g><path style="opacity:1" fill="#00a7f3" d="M 1199.5,699.5 C 1232.83,699.5 1266.17,699.5 1299.5,699.5C 1299.5,732.833 1299.5,766.167 1299.5,799.5C 1266.17,799.5 1232.83,799.5 1199.5,799.5C 1199.5,766.167 1199.5,732.833 1199.5,699.5 Z"/></g>
<g><path style="opacity:1" fill="#c6c8c9" d="M 1299.5,699.5 C 1366.17,699.5 1432.83,699.5 1499.5,699.5C 1499.5,732.833 1499.5,766.167 1499.5,799.5C 1466.17,799.5 1432.83,799.5 1399.5,799.5C 1366.17,799.5 1332.83,799.5 1299.5,799.5C 1299.5,766.167 1299.5,732.833 1299.5,699.5 Z"/></g>
<g><path style="opacity:1" fill="#e0fff9" d="M 1499.5,699.5 C 1532.83,699.5 1566.17,699.5 1599.5,699.5C 1599.5,732.833 1599.5,766.167 1599.5,799.5C 1566.17,799.5 1532.83,799.5 1499.5,799.5C 1499.5,766.167 1499.5,732.833 1499.5,699.5 Z"/></g>
<g><path style="opacity:1" fill="#eb1c23" d="M 1599.5,699.5 C 1632.83,699.5 1666.17,699.5 1699.5,699.5C 1699.5,732.833 1699.5,766.167 1699.5,799.5C 1666.17,799.5 1632.83,799.5 1599.5,799.5C 1599.5,766.167 1599.5,732.833 1599.5,699.5 Z"/></g>
<g><path style="opacity:1" fill="#e0fff9" d="M 1699.5,699.5 C 1766.17,699.5 1832.83,699.5 1899.5,699.5C 1899.5,832.833 1899.5,966.167 1899.5,1099.5C 1832.83,1099.5 1766.17,1099.5 1699.5,1099.5C 1699.5,1066.17 1699.5,1032.83 1699.5,999.5C 1732.83,999.5 1766.17,999.5 1799.5,999.5C 1799.5,932.833 1799.5,866.167 1799.5,799.5C 1766.17,799.5 1732.83,799.5 1699.5,799.5C 1699.5,766.167 1699.5,732.833 1699.5,699.5 Z"/></g>
<g><path style="opacity:1" fill="#7d7e7e" d="M -0.5,799.5 C 99.5,799.5 199.5,799.5 299.5,799.5C 299.5,866.167 299.5,932.833 299.5,999.5C 199.5,999.5 99.5,999.5 -0.5,999.5C -0.5,932.833 -0.5,866.167 -0.5,799.5 Z"/></g>
<g><path style="opacity:1" fill="#00a7f3" d="M 499.5,799.5 C 499.5,866.167 499.5,932.833 499.5,999.5C 466.167,999.5 432.833,999.5 399.5,999.5C 399.5,932.833 399.5,866.167 399.5,799.5C 432.833,799.5 466.167,799.5 499.5,799.5 Z"/></g>
<g><path style="opacity:1" fill="#7d7e7e" d="M 499.5,799.5 C 532.833,799.5 566.167,799.5 599.5,799.5C 666.167,799.5 732.833,799.5 799.5,799.5C 799.5,866.167 799.5,932.833 799.5,999.5C 732.833,999.5 666.167,999.5 599.5,999.5C 566.167,999.5 532.833,999.5 499.5,999.5C 499.5,932.833 499.5,866.167 499.5,799.5 Z"/></g>
<g><path style="opacity:1" fill="#eb1c23" d="M 799.5,799.5 C 832.833,799.5 866.167,799.5 899.5,799.5C 899.5,866.167 899.5,932.833 899.5,999.5C 866.167,999.5 832.833,999.5 799.5,999.5C 799.5,932.833 799.5,866.167 799.5,799.5 Z"/></g>
<g><path style="opacity:1" fill="#00a7f3" d="M 1299.5,799.5 C 1332.83,799.5 1366.17,799.5 1399.5,799.5C 1399.5,866.167 1399.5,932.833 1399.5,999.5C 1366.17,999.5 1332.83,999.5 1299.5,999.5C 1299.5,932.833 1299.5,866.167 1299.5,799.5 Z"/></g>
<g><path style="opacity:1" fill="#7d7e7e" d="M 1399.5,799.5 C 1432.83,799.5 1466.17,799.5 1499.5,799.5C 1532.83,799.5 1566.17,799.5 1599.5,799.5C 1599.5,866.167 1599.5,932.833 1599.5,999.5C 1532.83,999.5 1466.17,999.5 1399.5,999.5C 1399.5,932.833 1399.5,866.167 1399.5,799.5 Z"/></g>
<g><path style="opacity:1" fill="#ada99e" d="M 1599.5,799.5 C 1632.83,799.5 1666.17,799.5 1699.5,799.5C 1699.5,866.167 1699.5,932.833 1699.5,999.5C 1666.17,999.5 1632.83,999.5 1599.5,999.5C 1599.5,932.833 1599.5,866.167 1599.5,799.5 Z"/></g>
<g><path style="opacity:1" fill="#eb1c23" d="M 1699.5,799.5 C 1732.83,799.5 1766.17,799.5 1799.5,799.5C 1799.5,866.167 1799.5,932.833 1799.5,999.5C 1766.17,999.5 1732.83,999.5 1699.5,999.5C 1699.5,932.833 1699.5,866.167 1699.5,799.5 Z"/></g>
<g><path style="opacity:1" fill="#00a7f3" d="M 499.5,999.5 C 532.833,999.5 566.167,999.5 599.5,999.5C 599.5,1032.83 599.5,1066.17 599.5,1099.5C 566.167,1099.5 532.833,1099.5 499.5,1099.5C 499.5,1066.17 499.5,1032.83 499.5,999.5 Z"/></g>
<g><path style="opacity:1" fill="#c6c8c9" d="M 599.5,999.5 C 666.167,999.5 732.833,999.5 799.5,999.5C 832.833,999.5 866.167,999.5 899.5,999.5C 899.5,1032.83 899.5,1066.17 899.5,1099.5C 799.5,1099.5 699.5,1099.5 599.5,1099.5C 599.5,1066.17 599.5,1032.83 599.5,999.5 Z"/></g>
<g><path style="opacity:1" fill="#eb1c23" d="M 899.5,999.5 C 932.833,999.5 966.167,999.5 999.5,999.5C 999.5,1032.83 999.5,1066.17 999.5,1099.5C 966.167,1099.5 932.833,1099.5 899.5,1099.5C 899.5,1066.17 899.5,1032.83 899.5,999.5 Z"/></g>
<g><path style="opacity:1" fill="#00a7f3" d="M 1299.5,999.5 C 1299.5,1032.83 1299.5,1066.17 1299.5,1099.5C 1266.17,1099.5 1232.83,1099.5 1199.5,1099.5C 1199.5,1066.17 1199.5,1032.83 1199.5,999.5C 1232.83,999.5 1266.17,999.5 1299.5,999.5 Z"/></g>
<g><path style="opacity:1" fill="#c6c8c9" d="M 1299.5,999.5 C 1332.83,999.5 1366.17,999.5 1399.5,999.5C 1466.17,999.5 1532.83,999.5 1599.5,999.5C 1599.5,1032.83 1599.5,1066.17 1599.5,1099.5C 1499.5,1099.5 1399.5,1099.5 1299.5,1099.5C 1299.5,1066.17 1299.5,1032.83 1299.5,999.5 Z"/></g>
<g><path style="opacity:1" fill="#eb1c23" d="M 1599.5,999.5 C 1632.83,999.5 1666.17,999.5 1699.5,999.5C 1699.5,1032.83 1699.5,1066.17 1699.5,1099.5C 1666.17,1099.5 1632.83,1099.5 1599.5,1099.5C 1599.5,1066.17 1599.5,1032.83 1599.5,999.5 Z"/></g>
<g><path style="opacity:1" fill="#e0fff9" d="M 2199.5,999.5 C 2199.5,1132.83 2199.5,1266.17 2199.5,1399.5C 2132.83,1399.5 2066.17,1399.5 1999.5,1399.5C 1999.5,1266.17 1999.5,1132.83 1999.5,999.5C 2066.17,999.5 2132.83,999.5 2199.5,999.5 Z"/></g>
<g><path style="opacity:1" fill="#7d7e7e" d="M -0.5,1099.5 C 32.8333,1099.5 66.1667,1099.5 99.5,1099.5C 99.5,1132.83 99.5,1166.17 99.5,1199.5C 66.1667,1199.5 32.8333,1199.5 -0.5,1199.5C -0.5,1166.17 -0.5,1132.83 -0.5,1099.5 Z"/></g>
<g><path style="opacity:1" fill="#7d7e7e" d="M 499.5,1099.5 C 532.833,1099.5 566.167,1099.5 599.5,1099.5C 599.5,1132.83 599.5,1166.17 599.5,1199.5C 599.5,1232.83 599.5,1266.17 599.5,1299.5C 466.167,1299.5 332.833,1299.5 199.5,1299.5C 199.5,1232.83 199.5,1166.17 199.5,1099.5C 299.5,1099.5 399.5,1099.5 499.5,1099.5 Z"/></g>
<g><path style="opacity:1" fill="#00a7f3" d="M 599.5,1099.5 C 699.5,1099.5 799.5,1099.5 899.5,1099.5C 932.833,1099.5 966.167,1099.5 999.5,1099.5C 1066.17,1099.5 1132.83,1099.5 1199.5,1099.5C 1199.5,1132.83 1199.5,1166.17 1199.5,1199.5C 1166.17,1199.5 1132.83,1199.5 1099.5,1199.5C 966.167,1199.5 832.833,1199.5 699.5,1199.5C 666.167,1199.5 632.833,1199.5 599.5,1199.5C 599.5,1166.17 599.5,1132.83 599.5,1099.5 Z"/></g>
<g><path style="opacity:1" fill="#7d7e7e" d="M 1199.5,1099.5 C 1232.83,1099.5 1266.17,1099.5 1299.5,1099.5C 1299.5,1132.83 1299.5,1166.17 1299.5,1199.5C 1399.5,1199.5 1499.5,1199.5 1599.5,1199.5C 1599.5,1232.83 1599.5,1266.17 1599.5,1299.5C 1466.17,1299.5 1332.83,1299.5 1199.5,1299.5C 1199.5,1266.17 1199.5,1232.83 1199.5,1199.5C 1199.5,1166.17 1199.5,1132.83 1199.5,1099.5 Z"/></g>
<g><path style="opacity:1" fill="#eb1c23" d="M 1299.5,1099.5 C 1399.5,1099.5 1499.5,1099.5 1599.5,1099.5C 1599.5,1132.83 1599.5,1166.17 1599.5,1199.5C 1499.5,1199.5 1399.5,1199.5 1299.5,1199.5C 1299.5,1166.17 1299.5,1132.83 1299.5,1099.5 Z"/></g>
<g><path style="opacity:1" fill="#c6c8c9" d="M 1599.5,1099.5 C 1632.83,1099.5 1666.17,1099.5 1699.5,1099.5C 1699.5,1132.83 1699.5,1166.17 1699.5,1199.5C 1699.5,1232.83 1699.5,1266.17 1699.5,1299.5C 1666.17,1299.5 1632.83,1299.5 1599.5,1299.5C 1599.5,1266.17 1599.5,1232.83 1599.5,1199.5C 1599.5,1166.17 1599.5,1132.83 1599.5,1099.5 Z"/></g>
<g><path style="opacity:1" fill="#c6c8c9" d="M 599.5,1199.5 C 632.833,1199.5 666.167,1199.5 699.5,1199.5C 699.5,1232.83 699.5,1266.17 699.5,1299.5C 666.167,1299.5 632.833,1299.5 599.5,1299.5C 599.5,1266.17 599.5,1232.83 599.5,1199.5 Z"/></g>
<g><path style="opacity:1" fill="#7d7e7e" d="M 699.5,1199.5 C 832.833,1199.5 966.167,1199.5 1099.5,1199.5C 1099.5,1232.83 1099.5,1266.17 1099.5,1299.5C 999.5,1299.5 899.5,1299.5 799.5,1299.5C 766.167,1299.5 732.833,1299.5 699.5,1299.5C 699.5,1266.17 699.5,1232.83 699.5,1199.5 Z"/></g>
<g><path style="opacity:1" fill="#c6c8c9" d="M 1099.5,1199.5 C 1132.83,1199.5 1166.17,1199.5 1199.5,1199.5C 1199.5,1232.83 1199.5,1266.17 1199.5,1299.5C 1166.17,1299.5 1132.83,1299.5 1099.5,1299.5C 1099.5,1266.17 1099.5,1232.83 1099.5,1199.5 Z"/></g>
<g><path style="opacity:1" fill="#7d7e7e" d="M 1699.5,1199.5 C 1732.83,1199.5 1766.17,1199.5 1799.5,1199.5C 1799.5,1232.83 1799.5,1266.17 1799.5,1299.5C 1766.17,1299.5 1732.83,1299.5 1699.5,1299.5C 1699.5,1266.17 1699.5,1232.83 1699.5,1199.5 Z"/></g>
<g><path style="opacity:1" fill="#e0fff9" d="M 1799.5,1199.5 C 1832.83,1199.5 1866.17,1199.5 1899.5,1199.5C 1899.5,1332.83 1899.5,1466.17 1899.5,1599.5C 1832.83,1599.5 1766.17,1599.5 1699.5,1599.5C 1699.5,1566.17 1699.5,1532.83 1699.5,1499.5C 1699.5,1466.17 1699.5,1432.83 1699.5,1399.5C 1732.83,1399.5 1766.17,1399.5 1799.5,1399.5C 1799.5,1366.17 1799.5,1332.83 1799.5,1299.5C 1799.5,1266.17 1799.5,1232.83 1799.5,1199.5 Z"/></g>
<g><path style="opacity:1" fill="#515251" d="M 799.5,1299.5 C 899.5,1299.5 999.5,1299.5 1099.5,1299.5C 1132.83,1299.5 1166.17,1299.5 1199.5,1299.5C 1332.83,1299.5 1466.17,1299.5 1599.5,1299.5C 1632.83,1299.5 1666.17,1299.5 1699.5,1299.5C 1732.83,1299.5 1766.17,1299.5 1799.5,1299.5C 1799.5,1332.83 1799.5,1366.17 1799.5,1399.5C 1766.17,1399.5 1732.83,1399.5 1699.5,1399.5C 1699.5,1432.83 1699.5,1466.17 1699.5,1499.5C 1666.17,1499.5 1632.83,1499.5 1599.5,1499.5C 1566.17,1499.5 1532.83,1499.5 1499.5,1499.5C 1499.5,1532.83 1499.5,1566.17 1499.5,1599.5C 1466.17,1599.5 1432.83,1599.5 1399.5,1599.5C 1366.17,1599.5 1332.83,1599.5 1299.5,1599.5C 1299.5,1632.83 1299.5,1666.17 1299.5,1699.5C 1266.17,1699.5 1232.83,1699.5 1199.5,1699.5C 1199.5,1732.83 1199.5,1766.17 1199.5,1799.5C 1132.83,1799.5 1066.17,1799.5 999.5,1799.5C 999.5,1732.83 999.5,1666.17 999.5,1599.5C 966.167,1599.5 932.833,1599.5 899.5,1599.5C 899.5,1532.83 899.5,1466.17 899.5,1399.5C 866.167,1399.5 832.833,1399.5 799.5,1399.5C 799.5,1366.17 799.5,1332.83 799.5,1299.5 Z"/></g>
<g><path style="opacity:1" fill="#e0fff9" d="M 1599.5,1499.5 C 1599.5,1599.5 1599.5,1699.5 1599.5,1799.5C 1532.83,1799.5 1466.17,1799.5 1399.5,1799.5C 1399.5,1732.83 1399.5,1666.17 1399.5,1599.5C 1432.83,1599.5 1466.17,1599.5 1499.5,1599.5C 1499.5,1566.17 1499.5,1532.83 1499.5,1499.5C 1532.83,1499.5 1566.17,1499.5 1599.5,1499.5 Z"/></g>
<g><path style="opacity:1" fill="#e0fff9" d="M 2199.5,1499.5 C 2199.5,1566.17 2199.5,1632.83 2199.5,1699.5C 2166.17,1699.5 2132.83,1699.5 2099.5,1699.5C 2099.5,1732.83 2099.5,1766.17 2099.5,1799.5C 2066.17,1799.5 2032.83,1799.5 1999.5,1799.5C 1999.5,1699.5 1999.5,1599.5 1999.5,1499.5C 2066.17,1499.5 2132.83,1499.5 2199.5,1499.5 Z"/></g>
<g><path style="opacity:1" fill="#ada99e" d="M 1399.5,1599.5 C 1399.5,1666.17 1399.5,1732.83 1399.5,1799.5C 1366.17,1799.5 1332.83,1799.5 1299.5,1799.5C 1299.5,1766.17 1299.5,1732.83 1299.5,1699.5C 1299.5,1666.17 1299.5,1632.83 1299.5,1599.5C 1332.83,1599.5 1366.17,1599.5 1399.5,1599.5 Z"/></g>
<g><path style="opacity:1" fill="#e0fff9" d="M 1299.5,1699.5 C 1299.5,1732.83 1299.5,1766.17 1299.5,1799.5C 1266.17,1799.5 1232.83,1799.5 1199.5,1799.5C 1199.5,1766.17 1199.5,1732.83 1199.5,1699.5C 1232.83,1699.5 1266.17,1699.5 1299.5,1699.5 Z"/></g>
<g><path style="opacity:1" fill="#e0fff9" d="M 1899.5,1799.5 C 1832.83,1799.5 1766.17,1799.5 1699.5,1799.5C 1699.5,1766.17 1699.5,1732.83 1699.5,1699.5C 1766.17,1699.5 1832.83,1699.5 1899.5,1699.5C 1899.5,1732.83 1899.5,1766.17 1899.5,1799.5 Z"/></g>
</svg>
